<svg xmlns="http://www.w3.org/2000/svg" xmlns:xlink="http://www.w3.org/1999/xlink" width="1667" zoomAndPan="magnify" viewBox="0 0 1250.25 1250.999946" height="1668" preserveAspectRatio="xMidYMid meet" version="1.0"><defs><g/><clipPath id="3c3b860180"><path d="M 260 296 L 958 296 L 958 993 L 260 993 Z M 260 296 " clip-rule="nonzero"/></clipPath><clipPath id="a14f7ed21e"><path d="M 945.367188 291.273438 L 962.316406 308.21875 L 272.914062 997.621094 L 255.964844 980.671875 Z M 945.367188 291.273438 " clip-rule="nonzero"/></clipPath><clipPath id="6fd8c03a11"><path d="M 953.839844 316.695312 L 281.425781 989.109375 C 276.746094 993.789062 269.15625 993.789062 264.476562 989.109375 C 259.796875 984.429688 259.796875 976.84375 264.476562 972.160156 L 936.890625 299.746094 C 941.570312 295.066406 949.160156 295.066406 953.839844 299.746094 C 958.519531 304.425781 958.519531 312.015625 953.839844 316.695312 Z M 953.839844 316.695312 " clip-rule="nonzero"/></clipPath><clipPath id="ebdc937924"><path d="M 0 0 L 698 0 L 698 697 L 0 697 Z M 0 0 " clip-rule="nonzero"/></clipPath><clipPath id="d73b2c3c88"><path d="M 685.367188 -4.726562 L 702.316406 12.21875 L 12.914062 701.621094 L -4.035156 684.671875 Z M 685.367188 -4.726562 " clip-rule="nonzero"/></clipPath><clipPath id="292c616b9f"><path d="M 693.839844 20.695312 L 21.425781 693.109375 C 16.746094 697.789062 9.15625 697.789062 4.476562 693.109375 C -0.203125 688.429688 -0.203125 680.84375 4.476562 676.160156 L 676.890625 3.746094 C 681.570312 -0.933594 689.160156 -0.933594 693.839844 3.746094 C 698.519531 8.425781 698.519531 16.015625 693.839844 20.695312 Z M 693.839844 20.695312 " clip-rule="nonzero"/></clipPath><clipPath id="9992524452"><rect x="0" width="698" y="0" height="697"/></clipPath></defs><g clip-path="url(#3c3b860180)"><g clip-path="url(#a14f7ed21e)"><g clip-path="url(#6fd8c03a11)"><g transform="matrix(1, 0, 0, 1, 260, 296)"><g clip-path="url(#9992524452)"><g clip-path="url(#ebdc937924)"><g clip-path="url(#d73b2c3c88)"><g clip-path="url(#292c616b9f)"><path fill="#225779" d="M 685.367188 -4.726562 L 702.316406 12.21875 L 12.980469 701.554688 L -3.96875 684.605469 Z M 685.367188 -4.726562 " fill-opacity="1" fill-rule="nonzero"/></g></g></g></g></g></g></g></g><g fill="#00c675" fill-opacity="1"><g transform="translate(307.503022, 599.752834)"><g><path d="M 53.96875 0 C 45.175781 0 37.976562 -2.796875 32.375 -8.390625 C 26.78125 -13.992188 23.984375 -21.191406 23.984375 -29.984375 L 23.984375 -179.296875 C 23.984375 -201.679688 29.476562 -221.96875 40.46875 -240.15625 C 51.46875 -258.34375 66.160156 -272.832031 84.546875 -283.625 C 102.929688 -294.414062 123.117188 -299.8125 145.109375 -299.8125 C 167.492188 -299.8125 187.878906 -294.414062 206.265625 -283.625 C 224.660156 -272.832031 239.351562 -258.34375 250.34375 -240.15625 C 261.34375 -221.96875 266.84375 -201.679688 266.84375 -179.296875 L 266.84375 -29.984375 C 266.84375 -21.191406 264.039062 -13.992188 258.4375 -8.390625 C 252.84375 -2.796875 245.648438 0 236.859375 0 C 228.066406 0 220.867188 -2.796875 215.265625 -8.390625 C 209.671875 -13.992188 206.875 -21.191406 206.875 -29.984375 L 206.875 -178.09375 C 206.875 -195.6875 200.875 -210.476562 188.875 -222.46875 C 176.882812 -234.457031 162.296875 -240.453125 145.109375 -240.453125 C 128.316406 -240.453125 113.925781 -234.457031 101.9375 -222.46875 C 89.945312 -210.476562 83.953125 -195.6875 83.953125 -178.09375 L 83.953125 -29.984375 C 83.953125 -21.191406 81.148438 -13.992188 75.546875 -8.390625 C 69.953125 -2.796875 62.757812 0 53.96875 0 Z M 53.96875 0 "/></g></g></g><g fill="#000000" fill-opacity="1"><g transform="translate(651.171848, 1010.28148)"><g><path d="M 145.109375 0 C 123.117188 0 102.929688 -5.394531 84.546875 -16.1875 C 66.160156 -26.976562 51.46875 -41.566406 40.46875 -59.953125 C 29.476562 -78.347656 23.984375 -98.539062 23.984375 -120.53125 L 23.984375 -269.828125 C 23.984375 -278.617188 26.78125 -285.8125 32.375 -291.40625 C 37.976562 -297.007812 45.175781 -299.8125 53.96875 -299.8125 C 62.757812 -299.8125 69.953125 -297.007812 75.546875 -291.40625 C 81.148438 -285.8125 83.953125 -278.617188 83.953125 -269.828125 L 83.953125 -121.71875 C 83.953125 -104.53125 89.945312 -89.835938 101.9375 -77.640625 C 113.925781 -65.453125 128.316406 -59.359375 145.109375 -59.359375 C 162.296875 -59.359375 176.882812 -65.453125 188.875 -77.640625 C 200.875 -89.835938 206.875 -104.53125 206.875 -121.71875 L 206.875 -269.828125 C 206.875 -278.617188 209.671875 -285.8125 215.265625 -291.40625 C 220.859375 -297.007812 228.054688 -299.8125 236.859375 -299.8125 C 245.648438 -299.8125 252.84375 -297.007812 258.4375 -291.40625 C 264.03125 -285.8125 266.828125 -278.617188 266.828125 -269.828125 L 266.828125 -120.53125 C 266.828125 -98.539062 261.332031 -78.347656 250.34375 -59.953125 C 239.351562 -41.566406 224.660156 -26.976562 206.265625 -16.1875 C 187.878906 -5.394531 167.492188 0 145.109375 0 Z M 145.109375 0 "/></g></g></g></svg>
