<svg xmlns="http://www.w3.org/2000/svg" xmlns:xlink="http://www.w3.org/1999/xlink" width="1667" zoomAndPan="magnify" viewBox="0 0 1250.25 1250.999946" height="1668" preserveAspectRatio="xMidYMid meet" version="1.0"><defs><g/><clipPath id="1f33a61ef0"><path d="M 39.078125 39.828125 L 1213.855469 39.828125 L 1213.855469 1214.605469 L 39.078125 1214.605469 Z M 39.078125 39.828125 " clip-rule="nonzero"/></clipPath><clipPath id="9a6582288e"><path d="M 626.464844 39.828125 C 302.0625 39.828125 39.078125 302.808594 39.078125 627.214844 C 39.078125 951.621094 302.0625 1214.605469 626.464844 1214.605469 C 950.871094 1214.605469 1213.855469 951.621094 1213.855469 627.214844 C 1213.855469 302.808594 950.871094 39.828125 626.464844 39.828125 Z M 626.464844 39.828125 " clip-rule="nonzero"/></clipPath><clipPath id="c14367e3bb"><path d="M 0.078125 0.828125 L 1174.855469 0.828125 L 1174.855469 1175.605469 L 0.078125 1175.605469 Z M 0.078125 0.828125 " clip-rule="nonzero"/></clipPath><clipPath id="8637a470b9"><path d="M 587.464844 0.828125 C 263.0625 0.828125 0.078125 263.808594 0.078125 588.214844 C 0.078125 912.621094 263.0625 1175.605469 587.464844 1175.605469 C 911.871094 1175.605469 1174.855469 912.621094 1174.855469 588.214844 C 1174.855469 263.808594 911.871094 0.828125 587.464844 0.828125 Z M 587.464844 0.828125 " clip-rule="nonzero"/></clipPath><clipPath id="6f7cef97e2"><rect x="0" width="1175" y="0" height="1176"/></clipPath><clipPath id="0208c742a0"><path d="M 276 279 L 973 279 L 973 976 L 276 976 Z M 276 279 " clip-rule="nonzero"/></clipPath><clipPath id="3d743abe20"><path d="M 960.957031 274.0625 L 977.90625 291.011719 L 288.507812 980.410156 L 271.558594 963.460938 Z M 960.957031 274.0625 " clip-rule="nonzero"/></clipPath><clipPath id="7ca646aab1"><path d="M 969.429688 299.484375 L 297.015625 971.898438 C 292.335938 976.582031 284.746094 976.582031 280.066406 971.898438 C 275.386719 967.21875 275.386719 959.632812 280.066406 954.953125 L 952.480469 282.535156 C 957.164062 277.855469 964.75 277.855469 969.429688 282.535156 C 974.109375 287.214844 974.109375 294.804688 969.429688 299.484375 Z M 969.429688 299.484375 " clip-rule="nonzero"/></clipPath><clipPath id="a066197269"><path d="M 0 0 L 697 0 L 697 697 L 0 697 Z M 0 0 " clip-rule="nonzero"/></clipPath><clipPath id="eae02ea9b5"><path d="M 684.957031 -4.9375 L 701.90625 12.011719 L 12.507812 701.410156 L -4.441406 684.460938 Z M 684.957031 -4.9375 " clip-rule="nonzero"/></clipPath><clipPath id="d9d445da3c"><path d="M 693.429688 20.484375 L 21.015625 692.898438 C 16.335938 697.582031 8.746094 697.582031 4.066406 692.898438 C -0.613281 688.21875 -0.613281 680.632812 4.066406 675.953125 L 676.480469 3.535156 C 681.164062 -1.144531 688.75 -1.144531 693.429688 3.535156 C 698.109375 8.214844 698.109375 15.804688 693.429688 20.484375 Z M 693.429688 20.484375 " clip-rule="nonzero"/></clipPath><clipPath id="9f3db89aa1"><rect x="0" width="697" y="0" height="697"/></clipPath></defs><g clip-path="url(#1f33a61ef0)"><g clip-path="url(#9a6582288e)"><g transform="matrix(1, 0, 0, 1, 39, 39)"><g clip-path="url(#6f7cef97e2)"><g clip-path="url(#c14367e3bb)"><g clip-path="url(#8637a470b9)"><path fill="#000000" d="M 0.078125 0.828125 L 1174.855469 0.828125 L 1174.855469 1175.605469 L 0.078125 1175.605469 Z M 0.078125 0.828125 " fill-opacity="1" fill-rule="nonzero"/></g></g></g></g></g></g><g clip-path="url(#0208c742a0)"><g clip-path="url(#3d743abe20)"><g clip-path="url(#7ca646aab1)"><g transform="matrix(1, 0, 0, 1, 276, 279)"><g clip-path="url(#9f3db89aa1)"><g clip-path="url(#a066197269)"><g clip-path="url(#eae02ea9b5)"><g clip-path="url(#d9d445da3c)"><path fill="#3382b5" d="M 684.957031 -4.9375 L 701.90625 12.011719 L 12.570312 701.34375 L -4.375 684.394531 Z M 684.957031 -4.9375 " fill-opacity="1" fill-rule="nonzero"/></g></g></g></g></g></g></g></g><g fill="#00c675" fill-opacity="1"><g transform="translate(307.503022, 599.752834)"><g><path d="M 53.96875 0 C 45.175781 0 37.976562 -2.796875 32.375 -8.390625 C 26.78125 -13.992188 23.984375 -21.191406 23.984375 -29.984375 L 23.984375 -179.296875 C 23.984375 -201.679688 29.476562 -221.96875 40.46875 -240.15625 C 51.46875 -258.34375 66.160156 -272.832031 84.546875 -283.625 C 102.929688 -294.414062 123.117188 -299.8125 145.109375 -299.8125 C 167.492188 -299.8125 187.878906 -294.414062 206.265625 -283.625 C 224.660156 -272.832031 239.351562 -258.34375 250.34375 -240.15625 C 261.34375 -221.96875 266.84375 -201.679688 266.84375 -179.296875 L 266.84375 -29.984375 C 266.84375 -21.191406 264.039062 -13.992188 258.4375 -8.390625 C 252.84375 -2.796875 245.648438 0 236.859375 0 C 228.066406 0 220.867188 -2.796875 215.265625 -8.390625 C 209.671875 -13.992188 206.875 -21.191406 206.875 -29.984375 L 206.875 -178.09375 C 206.875 -195.6875 200.875 -210.476562 188.875 -222.46875 C 176.882812 -234.457031 162.296875 -240.453125 145.109375 -240.453125 C 128.316406 -240.453125 113.925781 -234.457031 101.9375 -222.46875 C 89.945312 -210.476562 83.953125 -195.6875 83.953125 -178.09375 L 83.953125 -29.984375 C 83.953125 -21.191406 81.148438 -13.992188 75.546875 -8.390625 C 69.953125 -2.796875 62.757812 0 53.96875 0 Z M 53.96875 0 "/></g></g></g><g fill="#ffffff" fill-opacity="1"><g transform="translate(651.171848, 1010.28148)"><g><path d="M 145.109375 0 C 123.117188 0 102.929688 -5.394531 84.546875 -16.1875 C 66.160156 -26.976562 51.46875 -41.566406 40.46875 -59.953125 C 29.476562 -78.347656 23.984375 -98.539062 23.984375 -120.53125 L 23.984375 -269.828125 C 23.984375 -278.617188 26.78125 -285.8125 32.375 -291.40625 C 37.976562 -297.007812 45.175781 -299.8125 53.96875 -299.8125 C 62.757812 -299.8125 69.953125 -297.007812 75.546875 -291.40625 C 81.148438 -285.8125 83.953125 -278.617188 83.953125 -269.828125 L 83.953125 -121.71875 C 83.953125 -104.53125 89.945312 -89.835938 101.9375 -77.640625 C 113.925781 -65.453125 128.316406 -59.359375 145.109375 -59.359375 C 162.296875 -59.359375 176.882812 -65.453125 188.875 -77.640625 C 200.875 -89.835938 206.875 -104.53125 206.875 -121.71875 L 206.875 -269.828125 C 206.875 -278.617188 209.671875 -285.8125 215.265625 -291.40625 C 220.859375 -297.007812 228.054688 -299.8125 236.859375 -299.8125 C 245.648438 -299.8125 252.84375 -297.007812 258.4375 -291.40625 C 264.03125 -285.8125 266.828125 -278.617188 266.828125 -269.828125 L 266.828125 -120.53125 C 266.828125 -98.539062 261.332031 -78.347656 250.34375 -59.953125 C 239.351562 -41.566406 224.660156 -26.976562 206.265625 -16.1875 C 187.878906 -5.394531 167.492188 0 145.109375 0 Z M 145.109375 0 "/></g></g></g></svg>